<svg xmlns="http://www.w3.org/2000/svg" 
    width="28" 
    height="28" 
    fill="none">
<path 
stroke="#8C8C8C" 
stroke-width="2.125" 
d="M2.475 20.311C1.259 15.45.65 13.02 1.928 11.385 3.203 9.75 5.71 9.75 10.72 9.75h6.56c5.012 0 7.516 0 8.793 1.635 1.276 1.633.668 4.066-.547 8.926-.774 3.093-1.16 4.638-2.312 5.54-1.154.899-2.747.899-5.935.899h-6.559c-3.187 0-4.781 0-5.934-.9-1.153-.9-1.54-2.446-2.312-5.539Z"/><path stroke="#8C8C8C" stroke-width="2.125" d="m24.625 10.458-1.006-3.69c-.388-1.424-.582-2.135-.98-2.672a3.542 3.542 0 0 0-1.555-1.186c-.624-.243-1.36-.243-2.834-.243M3.375 10.458l1.006-3.69c.388-1.424.582-2.135.98-2.672A3.542 3.542 0 0 1 6.917 2.91c.623-.243 1.36-.243 2.833-.243"/><path stroke="#8C8C8C" stroke-width="2.125" d="M9.75 2.667a1.417 1.417 0 0 1 1.417-1.417h5.667a1.417 1.417 0 0 1 0 2.833h-5.667A1.417 1.417 0 0 1 9.75 2.667Z"/></svg>